<svg xmlns="http://www.w3.org/2000/svg" width="21" height="26" fill="none"><path fill="#8D9180" d="M10.764 10.261a5.135 5.135 0 0 0 5.13-5.13A5.135 5.135 0 0 0 10.764 0a5.136 5.136 0 0 0-5.131 5.13 5.136 5.136 0 0 0 5.13 5.131Zm6.885 2.487-.009-.003c-.668-.163-2.714-.45-2.714-.45a.455.455 0 0 0-.56.28l-3.08 8.448a.556.556 0 0 1-1.044 0l-3.08-8.448a.455.455 0 0 0-.426-.3c-.044 0-2.148.295-2.848.47-1.913.475-3.12 2.357-3.12 4.318v7.03c0 1.053.854 1.907 1.907 1.907h16.176a1.908 1.908 0 0 0 1.908-1.907v-7.054a4.514 4.514 0 0 0-3.11-4.291Z"/><path fill="#8D9180" d="M11.925 12.134a.654.654 0 0 0-.485-.2h-1.355a.654.654 0 0 0-.484.2.629.629 0 0 0-.083.741l.724 1.093-.339 2.861.668 1.778a.204.204 0 0 0 .383 0l.668-1.777-.339-2.862.725-1.093a.63.63 0 0 0-.083-.74Z"/></svg>