<svg xmlns="http://www.w3.org/2000/svg" width="24" height="25" fill="none"><path fill="#8D9180" d="M24 3.35C24 1.5 22.49 0 20.64 0H3.35A3.35 3.35 0 0 0 0 3.35V16.7c0 1.8 1.46 3.27 3.26 3.27h5.6v.25c0 .07-.02.14-.05.2l-1.02 1.87H6.8c-.55 0-1 .45-1 1s.45 1 1 1h10.99c.55 0 1-.45 1-1s-.45-1-1-1h-.99l-1.03-1.87a.455.455 0 0 1-.05-.2v-.25h5.01c1.8 0 3.27-1.47 3.27-3.27V3.35ZM22 13.9H2V3.35C2 2.6 2.6 2 3.35 2h17.29c.75 0 1.36.6 1.36 1.35V13.9Z"/><path fill="#8D9180" d="M12.001 3.7c-3.27 0-5.75 3.53-5.86 3.68-.23.34-.23.79 0 1.14.11.15 2.59 3.68 5.86 3.68 3.26 0 5.74-3.53 5.85-3.68.23-.35.23-.8 0-1.14-.11-.15-2.59-3.68-5.85-3.68Zm1.32 5.56c-.768.768-1.915.723-2.64 0-.867-.777-.625-2.026 0-2.65.69-.69 1.95-.69 2.64 0 .77.768.677 2.044 0 2.65Z"/></svg>